<?xml version="1.0" standalone="no"?>
<!DOCTYPE svg PUBLIC "-//W3C//DTD SVG 20010904//EN"
 "http://www.w3.org/TR/2001/REC-SVG-20010904/DTD/svg10.dtd">
<svg version="1.0" xmlns="http://www.w3.org/2000/svg"
 width="94.000000pt" height="94.000000pt" viewBox="0 0 94.000000 94.000000"
 preserveAspectRatio="xMidYMid meet">

<g transform="translate(0.000000,94.000000) scale(0.100000,-0.100000)"
fill="#000000" stroke="none">
<path d="M560 850 c-8 -5 -24 -10 -35 -10 -11 0 -37 -9 -57 -20 -21 -11 -59
-25 -85 -30 -26 -6 -56 -18 -65 -27 -25 -22 -36 -70 -29 -123 l6 -45 13 63
c16 79 39 97 103 83 24 -6 77 -7 116 -4 l73 6 14 -34 c7 -19 17 -53 21 -76 11
-68 25 -50 25 32 0 68 -2 77 -30 108 -17 20 -30 46 -30 61 0 27 -14 33 -40 16z"/>
<path d="M394 376 c11 -18 13 -26 5 -21 -8 5 -7 0 2 -10 22 -22 96 -30 129
-13 16 9 26 24 28 42 3 28 3 28 -19 12 -31 -21 -108 -21 -139 1 l-25 17 19
-28z"/>
<path d="M567 343 c-7 -46 -49 -153 -59 -153 -10 0 -21 66 -15 84 9 23 -19 41
-38 26 -11 -9 -12 -16 -5 -25 7 -8 6 -24 -4 -51 l-14 -39 -25 58 c-15 32 -29
74 -33 93 -5 26 -10 32 -17 25 -8 -8 -8 -19 -1 -39 6 -15 9 -33 6 -41 -7 -20
-133 -73 -174 -73 -33 1 -38 -3 -48 -33 -29 -88 6 -99 330 -99 274 0 326 8
336 50 9 34 -21 109 -62 154 -27 30 -144 100 -166 100 -3 0 -8 -17 -11 -37z"/>
</g>
</svg>
